<mxfile host="app.diagrams.net" modified="2023-04-01T08:25:56.653Z" agent="Mozilla/5.0 (Windows NT 10.0; Win64; x64) AppleWebKit/537.36 (KHTML, like Gecko) Chrome/105.0.0.0 Safari/537.36" etag="rxjCohJrrlZVAANcFHfP" version="21.1.2" type="github" pages="5">
  <diagram id="C5RBs43oDa-KdzZeNtuy" name="Page-1">
    <mxGraphModel dx="1430" dy="1944" grid="1" gridSize="10" guides="1" tooltips="1" connect="1" arrows="1" fold="1" page="1" pageScale="1" pageWidth="827" pageHeight="1169" math="0" shadow="0">
      <root>
        <mxCell id="WIyWlLk6GJQsqaUBKTNV-0" />
        <mxCell id="WIyWlLk6GJQsqaUBKTNV-1" parent="WIyWlLk6GJQsqaUBKTNV-0" />
        <mxCell id="zkfFHV4jXpPFQw0GAbJ--0" value="FOutBunch" style="swimlane;fontStyle=2;align=center;verticalAlign=top;childLayout=stackLayout;horizontal=1;startSize=30;horizontalStack=0;resizeParent=1;resizeLast=0;collapsible=1;marginBottom=0;rounded=0;shadow=0;strokeWidth=1;" parent="WIyWlLk6GJQsqaUBKTNV-1" vertex="1">
          <mxGeometry x="220" y="160" width="160" height="60" as="geometry">
            <mxRectangle x="220" y="120" width="160" height="26" as="alternateBounds" />
          </mxGeometry>
        </mxCell>
        <mxCell id="zkfFHV4jXpPFQw0GAbJ--12" value="" style="endArrow=block;endSize=10;endFill=0;shadow=0;strokeWidth=1;rounded=0;edgeStyle=elbowEdgeStyle;elbow=vertical;exitX=0.5;exitY=0;exitDx=0;exitDy=0;" parent="WIyWlLk6GJQsqaUBKTNV-1" source="FxQUpcb1CC_VWdXCSL8I-5" target="zkfFHV4jXpPFQw0GAbJ--0" edge="1">
          <mxGeometry width="160" relative="1" as="geometry">
            <mxPoint x="200" y="360" as="sourcePoint" />
            <mxPoint x="200" y="203" as="targetPoint" />
          </mxGeometry>
        </mxCell>
        <mxCell id="FxQUpcb1CC_VWdXCSL8I-8" style="edgeStyle=orthogonalEdgeStyle;rounded=0;orthogonalLoop=1;jettySize=auto;html=1;exitX=0.5;exitY=0;exitDx=0;exitDy=0;entryX=0.5;entryY=1;entryDx=0;entryDy=0;endArrow=block;endFill=0;endSize=10;" edge="1" parent="WIyWlLk6GJQsqaUBKTNV-1" source="FxQUpcb1CC_VWdXCSL8I-0" target="FxQUpcb1CC_VWdXCSL8I-3">
          <mxGeometry relative="1" as="geometry" />
        </mxCell>
        <mxCell id="FxQUpcb1CC_VWdXCSL8I-0" value="FNetBitWriter" style="swimlane;fontStyle=2;align=center;verticalAlign=top;childLayout=stackLayout;horizontal=1;startSize=30;horizontalStack=0;resizeParent=1;resizeLast=0;collapsible=1;marginBottom=0;rounded=0;shadow=0;strokeWidth=1;" vertex="1" parent="WIyWlLk6GJQsqaUBKTNV-1">
          <mxGeometry x="220" y="60" width="160" height="68" as="geometry">
            <mxRectangle x="220" y="120" width="160" height="26" as="alternateBounds" />
          </mxGeometry>
        </mxCell>
        <mxCell id="FxQUpcb1CC_VWdXCSL8I-1" value="FArchive" style="swimlane;fontStyle=2;align=center;verticalAlign=top;childLayout=stackLayout;horizontal=1;startSize=30;horizontalStack=0;resizeParent=1;resizeLast=0;collapsible=1;marginBottom=0;rounded=0;shadow=0;strokeWidth=1;" vertex="1" parent="WIyWlLk6GJQsqaUBKTNV-1">
          <mxGeometry x="220" y="-300" width="160" height="68" as="geometry">
            <mxRectangle x="220" y="120" width="160" height="26" as="alternateBounds" />
          </mxGeometry>
        </mxCell>
        <mxCell id="FxQUpcb1CC_VWdXCSL8I-2" value="FBitArchive" style="swimlane;fontStyle=2;align=center;verticalAlign=top;childLayout=stackLayout;horizontal=1;startSize=30;horizontalStack=0;resizeParent=1;resizeLast=0;collapsible=1;marginBottom=0;rounded=0;shadow=0;strokeWidth=1;" vertex="1" parent="WIyWlLk6GJQsqaUBKTNV-1">
          <mxGeometry x="220" y="-180" width="160" height="68" as="geometry">
            <mxRectangle x="220" y="120" width="160" height="26" as="alternateBounds" />
          </mxGeometry>
        </mxCell>
        <mxCell id="FxQUpcb1CC_VWdXCSL8I-3" value="FBitWriter" style="swimlane;fontStyle=2;align=center;verticalAlign=top;childLayout=stackLayout;horizontal=1;startSize=30;horizontalStack=0;resizeParent=1;resizeLast=0;collapsible=1;marginBottom=0;rounded=0;shadow=0;strokeWidth=1;" vertex="1" parent="WIyWlLk6GJQsqaUBKTNV-1">
          <mxGeometry x="220" y="-60" width="160" height="68" as="geometry">
            <mxRectangle x="220" y="120" width="160" height="26" as="alternateBounds" />
          </mxGeometry>
        </mxCell>
        <mxCell id="FxQUpcb1CC_VWdXCSL8I-4" value="FArchiveState" style="swimlane;fontStyle=2;align=center;verticalAlign=top;childLayout=stackLayout;horizontal=1;startSize=30;horizontalStack=0;resizeParent=1;resizeLast=0;collapsible=1;marginBottom=0;rounded=0;shadow=0;strokeWidth=1;" vertex="1" parent="WIyWlLk6GJQsqaUBKTNV-1">
          <mxGeometry x="220" y="-420" width="160" height="68" as="geometry">
            <mxRectangle x="220" y="120" width="160" height="26" as="alternateBounds" />
          </mxGeometry>
        </mxCell>
        <mxCell id="FxQUpcb1CC_VWdXCSL8I-5" value="FControlChannelOutBunch" style="swimlane;fontStyle=2;align=center;verticalAlign=top;childLayout=stackLayout;horizontal=1;startSize=30;horizontalStack=0;resizeParent=1;resizeLast=0;collapsible=1;marginBottom=0;rounded=0;shadow=0;strokeWidth=1;" vertex="1" parent="WIyWlLk6GJQsqaUBKTNV-1">
          <mxGeometry x="210" y="260" width="180" height="98" as="geometry">
            <mxRectangle x="220" y="120" width="160" height="26" as="alternateBounds" />
          </mxGeometry>
        </mxCell>
        <mxCell id="FxQUpcb1CC_VWdXCSL8I-7" value="" style="endArrow=block;endSize=10;endFill=0;shadow=0;strokeWidth=1;rounded=0;edgeStyle=elbowEdgeStyle;elbow=vertical;" edge="1" parent="WIyWlLk6GJQsqaUBKTNV-1">
          <mxGeometry width="160" relative="1" as="geometry">
            <mxPoint x="300" y="160" as="sourcePoint" />
            <mxPoint x="299.71000000000004" y="128" as="targetPoint" />
          </mxGeometry>
        </mxCell>
        <mxCell id="FxQUpcb1CC_VWdXCSL8I-14" style="edgeStyle=orthogonalEdgeStyle;rounded=0;orthogonalLoop=1;jettySize=auto;html=1;exitX=0.5;exitY=0;exitDx=0;exitDy=0;entryX=0.5;entryY=1;entryDx=0;entryDy=0;endArrow=block;endFill=0;endSize=10;" edge="1" parent="WIyWlLk6GJQsqaUBKTNV-1">
          <mxGeometry relative="1" as="geometry">
            <mxPoint x="299.71000000000004" y="-300" as="sourcePoint" />
            <mxPoint x="299.71000000000004" y="-352" as="targetPoint" />
          </mxGeometry>
        </mxCell>
        <mxCell id="FxQUpcb1CC_VWdXCSL8I-15" style="edgeStyle=orthogonalEdgeStyle;rounded=0;orthogonalLoop=1;jettySize=auto;html=1;exitX=0.5;exitY=0;exitDx=0;exitDy=0;entryX=0.5;entryY=1;entryDx=0;entryDy=0;endArrow=block;endFill=0;endSize=10;" edge="1" parent="WIyWlLk6GJQsqaUBKTNV-1">
          <mxGeometry relative="1" as="geometry">
            <mxPoint x="299.71000000000004" y="-60" as="sourcePoint" />
            <mxPoint x="299.71000000000004" y="-112" as="targetPoint" />
          </mxGeometry>
        </mxCell>
        <mxCell id="FxQUpcb1CC_VWdXCSL8I-16" style="edgeStyle=orthogonalEdgeStyle;rounded=0;orthogonalLoop=1;jettySize=auto;html=1;exitX=0.5;exitY=0;exitDx=0;exitDy=0;entryX=0.5;entryY=1;entryDx=0;entryDy=0;endArrow=block;endFill=0;endSize=10;" edge="1" parent="WIyWlLk6GJQsqaUBKTNV-1">
          <mxGeometry relative="1" as="geometry">
            <mxPoint x="299.71" y="-180" as="sourcePoint" />
            <mxPoint x="299.71" y="-232" as="targetPoint" />
          </mxGeometry>
        </mxCell>
      </root>
    </mxGraphModel>
  </diagram>
  <diagram id="yP7lxpDCNaUI_CZVi8NB" name="链表遍历新方式">
    <mxGraphModel dx="988" dy="535" grid="1" gridSize="10" guides="1" tooltips="1" connect="1" arrows="1" fold="1" page="1" pageScale="1" pageWidth="827" pageHeight="1169" math="0" shadow="0">
      <root>
        <mxCell id="0" />
        <mxCell id="1" parent="0" />
        <mxCell id="Zqa_iv79S0zCVJX8DLEg-3" value="FLinkItem" style="swimlane;fontStyle=1;align=center;verticalAlign=top;childLayout=stackLayout;horizontal=1;startSize=26;horizontalStack=0;resizeParent=1;resizeParentMax=0;resizeLast=0;collapsible=1;marginBottom=0;whiteSpace=wrap;html=1;" vertex="1" parent="1">
          <mxGeometry x="20" y="260" width="90" height="52" as="geometry" />
        </mxCell>
        <mxCell id="Zqa_iv79S0zCVJX8DLEg-4" value="Next" style="text;strokeColor=none;fillColor=none;align=left;verticalAlign=top;spacingLeft=4;spacingRight=4;overflow=hidden;rotatable=0;points=[[0,0.5],[1,0.5]];portConstraint=eastwest;whiteSpace=wrap;html=1;" vertex="1" parent="Zqa_iv79S0zCVJX8DLEg-3">
          <mxGeometry y="26" width="90" height="26" as="geometry" />
        </mxCell>
        <mxCell id="Zqa_iv79S0zCVJX8DLEg-7" value="FLinkItem" style="swimlane;fontStyle=1;align=center;verticalAlign=top;childLayout=stackLayout;horizontal=1;startSize=26;horizontalStack=0;resizeParent=1;resizeParentMax=0;resizeLast=0;collapsible=1;marginBottom=0;whiteSpace=wrap;html=1;" vertex="1" parent="1">
          <mxGeometry x="170" y="290" width="86" height="52" as="geometry" />
        </mxCell>
        <mxCell id="Zqa_iv79S0zCVJX8DLEg-8" value="Next" style="text;strokeColor=none;fillColor=none;align=left;verticalAlign=top;spacingLeft=4;spacingRight=4;overflow=hidden;rotatable=0;points=[[0,0.5],[1,0.5]];portConstraint=eastwest;whiteSpace=wrap;html=1;" vertex="1" parent="Zqa_iv79S0zCVJX8DLEg-7">
          <mxGeometry y="26" width="86" height="26" as="geometry" />
        </mxCell>
        <mxCell id="Zqa_iv79S0zCVJX8DLEg-10" value="FLinkItem" style="swimlane;fontStyle=1;align=center;verticalAlign=top;childLayout=stackLayout;horizontal=1;startSize=26;horizontalStack=0;resizeParent=1;resizeParentMax=0;resizeLast=0;collapsible=1;marginBottom=0;whiteSpace=wrap;html=1;" vertex="1" parent="1">
          <mxGeometry x="310" y="320" width="86" height="52" as="geometry" />
        </mxCell>
        <mxCell id="Zqa_iv79S0zCVJX8DLEg-11" value="Next" style="text;strokeColor=none;fillColor=none;align=left;verticalAlign=top;spacingLeft=4;spacingRight=4;overflow=hidden;rotatable=0;points=[[0,0.5],[1,0.5]];portConstraint=eastwest;whiteSpace=wrap;html=1;" vertex="1" parent="Zqa_iv79S0zCVJX8DLEg-10">
          <mxGeometry y="26" width="86" height="26" as="geometry" />
        </mxCell>
        <mxCell id="Zqa_iv79S0zCVJX8DLEg-13" style="edgeStyle=orthogonalEdgeStyle;rounded=0;orthogonalLoop=1;jettySize=auto;html=1;exitX=1;exitY=0.5;exitDx=0;exitDy=0;entryX=0;entryY=0.169;entryDx=0;entryDy=0;entryPerimeter=0;" edge="1" parent="1" source="Zqa_iv79S0zCVJX8DLEg-8" target="Zqa_iv79S0zCVJX8DLEg-10">
          <mxGeometry relative="1" as="geometry" />
        </mxCell>
        <mxCell id="hkJveoZWHdXbA0DbDUU6-1" style="edgeStyle=orthogonalEdgeStyle;rounded=0;orthogonalLoop=1;jettySize=auto;html=1;" edge="1" parent="1" source="Zqa_iv79S0zCVJX8DLEg-4">
          <mxGeometry relative="1" as="geometry">
            <mxPoint x="170" y="299" as="targetPoint" />
          </mxGeometry>
        </mxCell>
      </root>
    </mxGraphModel>
  </diagram>
  <diagram id="_rMjGbM9AFW948b92gve" name="为Bunch添加消息头">
    <mxGraphModel dx="2555" dy="937" grid="1" gridSize="10" guides="1" tooltips="1" connect="1" arrows="1" fold="1" page="1" pageScale="1" pageWidth="827" pageHeight="1169" math="0" shadow="0">
      <root>
        <mxCell id="0" />
        <mxCell id="1" parent="0" />
        <mxCell id="yStfvqolcRnyzEvL0hIq-1" value="为Bunch添加消息头" style="rounded=0;whiteSpace=wrap;html=1;" vertex="1" parent="1">
          <mxGeometry x="-380" y="220" width="750" height="60" as="geometry" />
        </mxCell>
        <mxCell id="yStfvqolcRnyzEvL0hIq-6" style="edgeStyle=orthogonalEdgeStyle;rounded=0;orthogonalLoop=1;jettySize=auto;html=1;exitX=0.5;exitY=1;exitDx=0;exitDy=0;entryX=0.5;entryY=0;entryDx=0;entryDy=0;" edge="1" parent="1" source="yStfvqolcRnyzEvL0hIq-2" target="yStfvqolcRnyzEvL0hIq-4">
          <mxGeometry relative="1" as="geometry" />
        </mxCell>
        <mxCell id="yStfvqolcRnyzEvL0hIq-2" value="bIsOpenOrClose(1bit)" style="rounded=1;whiteSpace=wrap;html=1;" vertex="1" parent="1">
          <mxGeometry x="-150" y="340" width="210" height="40" as="geometry" />
        </mxCell>
        <mxCell id="yStfvqolcRnyzEvL0hIq-32" style="edgeStyle=orthogonalEdgeStyle;rounded=0;orthogonalLoop=1;jettySize=auto;html=1;entryX=0.5;entryY=0;entryDx=0;entryDy=0;" edge="1" parent="1" source="yStfvqolcRnyzEvL0hIq-3" target="yStfvqolcRnyzEvL0hIq-22">
          <mxGeometry relative="1" as="geometry" />
        </mxCell>
        <mxCell id="yStfvqolcRnyzEvL0hIq-3" value="bIsOpenOrClose(1bit)" style="rounded=1;whiteSpace=wrap;html=1;" vertex="1" parent="1">
          <mxGeometry x="-150" y="710" width="210" height="40" as="geometry" />
        </mxCell>
        <mxCell id="yStfvqolcRnyzEvL0hIq-5" style="edgeStyle=orthogonalEdgeStyle;rounded=0;orthogonalLoop=1;jettySize=auto;html=1;exitX=0.5;exitY=1;exitDx=0;exitDy=0;entryX=0.5;entryY=0;entryDx=0;entryDy=0;" edge="1" parent="1" source="yStfvqolcRnyzEvL0hIq-4" target="yStfvqolcRnyzEvL0hIq-3">
          <mxGeometry relative="1" as="geometry" />
        </mxCell>
        <mxCell id="yStfvqolcRnyzEvL0hIq-10" value="false" style="edgeLabel;html=1;align=center;verticalAlign=middle;resizable=0;points=[];" vertex="1" connectable="0" parent="yStfvqolcRnyzEvL0hIq-5">
          <mxGeometry x="-0.2571" y="1" relative="1" as="geometry">
            <mxPoint as="offset" />
          </mxGeometry>
        </mxCell>
        <mxCell id="yStfvqolcRnyzEvL0hIq-8" style="edgeStyle=orthogonalEdgeStyle;rounded=0;orthogonalLoop=1;jettySize=auto;html=1;exitX=1;exitY=0.5;exitDx=0;exitDy=0;" edge="1" parent="1" source="yStfvqolcRnyzEvL0hIq-4" target="yStfvqolcRnyzEvL0hIq-7">
          <mxGeometry relative="1" as="geometry" />
        </mxCell>
        <mxCell id="yStfvqolcRnyzEvL0hIq-9" value="true" style="edgeLabel;html=1;align=center;verticalAlign=middle;resizable=0;points=[];" vertex="1" connectable="0" parent="yStfvqolcRnyzEvL0hIq-8">
          <mxGeometry x="-0.2132" y="-2" relative="1" as="geometry">
            <mxPoint x="-1" y="-2" as="offset" />
          </mxGeometry>
        </mxCell>
        <mxCell id="yStfvqolcRnyzEvL0hIq-4" value="bIsOpenOrClose" style="rhombus;whiteSpace=wrap;html=1;" vertex="1" parent="1">
          <mxGeometry x="-112.5" y="420" width="135" height="80" as="geometry" />
        </mxCell>
        <mxCell id="yStfvqolcRnyzEvL0hIq-12" style="edgeStyle=orthogonalEdgeStyle;rounded=0;orthogonalLoop=1;jettySize=auto;html=1;exitX=0.5;exitY=1;exitDx=0;exitDy=0;entryX=0.5;entryY=0;entryDx=0;entryDy=0;" edge="1" parent="1" source="yStfvqolcRnyzEvL0hIq-7" target="yStfvqolcRnyzEvL0hIq-11">
          <mxGeometry relative="1" as="geometry" />
        </mxCell>
        <mxCell id="yStfvqolcRnyzEvL0hIq-7" value="Bunch.bOpen(1bit)" style="rounded=1;whiteSpace=wrap;html=1;" vertex="1" parent="1">
          <mxGeometry x="120" y="440" width="140" height="40" as="geometry" />
        </mxCell>
        <mxCell id="yStfvqolcRnyzEvL0hIq-15" style="edgeStyle=orthogonalEdgeStyle;rounded=0;orthogonalLoop=1;jettySize=auto;html=1;exitX=0.5;exitY=1;exitDx=0;exitDy=0;entryX=0.5;entryY=0;entryDx=0;entryDy=0;" edge="1" parent="1" source="yStfvqolcRnyzEvL0hIq-11" target="yStfvqolcRnyzEvL0hIq-14">
          <mxGeometry relative="1" as="geometry" />
        </mxCell>
        <mxCell id="yStfvqolcRnyzEvL0hIq-11" value="Bunch.bClose(1bit)" style="rounded=1;whiteSpace=wrap;html=1;" vertex="1" parent="1">
          <mxGeometry x="120" y="510" width="140" height="40" as="geometry" />
        </mxCell>
        <mxCell id="yStfvqolcRnyzEvL0hIq-17" style="edgeStyle=orthogonalEdgeStyle;rounded=0;orthogonalLoop=1;jettySize=auto;html=1;exitX=1;exitY=0.5;exitDx=0;exitDy=0;entryX=0;entryY=0.5;entryDx=0;entryDy=0;" edge="1" parent="1" source="yStfvqolcRnyzEvL0hIq-14" target="yStfvqolcRnyzEvL0hIq-16">
          <mxGeometry relative="1" as="geometry" />
        </mxCell>
        <mxCell id="yStfvqolcRnyzEvL0hIq-18" value="true" style="edgeLabel;html=1;align=center;verticalAlign=middle;resizable=0;points=[];" vertex="1" connectable="0" parent="yStfvqolcRnyzEvL0hIq-17">
          <mxGeometry x="-0.2343" y="2" relative="1" as="geometry">
            <mxPoint y="2" as="offset" />
          </mxGeometry>
        </mxCell>
        <mxCell id="yStfvqolcRnyzEvL0hIq-19" style="edgeStyle=orthogonalEdgeStyle;rounded=0;orthogonalLoop=1;jettySize=auto;html=1;exitX=0.5;exitY=1;exitDx=0;exitDy=0;entryX=1;entryY=0.5;entryDx=0;entryDy=0;" edge="1" parent="1" source="yStfvqolcRnyzEvL0hIq-14" target="yStfvqolcRnyzEvL0hIq-3">
          <mxGeometry relative="1" as="geometry" />
        </mxCell>
        <mxCell id="yStfvqolcRnyzEvL0hIq-20" value="false" style="edgeLabel;html=1;align=center;verticalAlign=middle;resizable=0;points=[];" vertex="1" connectable="0" parent="yStfvqolcRnyzEvL0hIq-19">
          <mxGeometry x="-0.6791" y="-2" relative="1" as="geometry">
            <mxPoint as="offset" />
          </mxGeometry>
        </mxCell>
        <mxCell id="yStfvqolcRnyzEvL0hIq-14" value="Bunch.bClose" style="rhombus;whiteSpace=wrap;html=1;" vertex="1" parent="1">
          <mxGeometry x="122.5" y="580" width="135" height="80" as="geometry" />
        </mxCell>
        <mxCell id="yStfvqolcRnyzEvL0hIq-31" style="edgeStyle=orthogonalEdgeStyle;rounded=0;orthogonalLoop=1;jettySize=auto;html=1;exitX=0.5;exitY=1;exitDx=0;exitDy=0;entryX=1;entryY=0.5;entryDx=0;entryDy=0;" edge="1" parent="1" source="yStfvqolcRnyzEvL0hIq-16" target="yStfvqolcRnyzEvL0hIq-3">
          <mxGeometry relative="1" as="geometry" />
        </mxCell>
        <mxCell id="yStfvqolcRnyzEvL0hIq-16" value="Bunch.CloseReason(4bit)" style="rounded=1;whiteSpace=wrap;html=1;" vertex="1" parent="1">
          <mxGeometry x="320" y="600" width="160" height="40" as="geometry" />
        </mxCell>
        <mxCell id="yStfvqolcRnyzEvL0hIq-33" style="edgeStyle=orthogonalEdgeStyle;rounded=0;orthogonalLoop=1;jettySize=auto;html=1;exitX=0.5;exitY=1;exitDx=0;exitDy=0;entryX=0.5;entryY=0;entryDx=0;entryDy=0;" edge="1" parent="1" source="yStfvqolcRnyzEvL0hIq-22" target="yStfvqolcRnyzEvL0hIq-30">
          <mxGeometry relative="1" as="geometry" />
        </mxCell>
        <mxCell id="yStfvqolcRnyzEvL0hIq-22" value="Bunch.bIsReplicationPaused(1bit)" style="rounded=1;whiteSpace=wrap;html=1;" vertex="1" parent="1">
          <mxGeometry x="-150" y="780" width="210" height="40" as="geometry" />
        </mxCell>
        <mxCell id="yStfvqolcRnyzEvL0hIq-54" style="edgeStyle=orthogonalEdgeStyle;rounded=0;orthogonalLoop=1;jettySize=auto;html=1;exitX=0.5;exitY=1;exitDx=0;exitDy=0;" edge="1" parent="1" source="yStfvqolcRnyzEvL0hIq-27" target="yStfvqolcRnyzEvL0hIq-41">
          <mxGeometry relative="1" as="geometry" />
        </mxCell>
        <mxCell id="yStfvqolcRnyzEvL0hIq-27" value="Bunch.bPartial(1bit)" style="rounded=1;whiteSpace=wrap;html=1;" vertex="1" parent="1">
          <mxGeometry x="-114.99000000000001" y="1150" width="140" height="40" as="geometry" />
        </mxCell>
        <mxCell id="yStfvqolcRnyzEvL0hIq-53" style="edgeStyle=orthogonalEdgeStyle;rounded=0;orthogonalLoop=1;jettySize=auto;html=1;exitX=0.5;exitY=1;exitDx=0;exitDy=0;entryX=0.5;entryY=0;entryDx=0;entryDy=0;" edge="1" parent="1" source="yStfvqolcRnyzEvL0hIq-28" target="yStfvqolcRnyzEvL0hIq-27">
          <mxGeometry relative="1" as="geometry" />
        </mxCell>
        <mxCell id="yStfvqolcRnyzEvL0hIq-28" value="Bunch.bHasMustBeMappedGUIDs(1bit)" style="rounded=1;whiteSpace=wrap;html=1;" vertex="1" parent="1">
          <mxGeometry x="-165" y="1070" width="240" height="40" as="geometry" />
        </mxCell>
        <mxCell id="yStfvqolcRnyzEvL0hIq-36" style="edgeStyle=orthogonalEdgeStyle;rounded=0;orthogonalLoop=1;jettySize=auto;html=1;exitX=0.5;exitY=1;exitDx=0;exitDy=0;" edge="1" parent="1" source="yStfvqolcRnyzEvL0hIq-29" target="yStfvqolcRnyzEvL0hIq-34">
          <mxGeometry relative="1" as="geometry" />
        </mxCell>
        <mxCell id="yStfvqolcRnyzEvL0hIq-29" value="Bunch.ChIndex(动态bit)" style="rounded=1;whiteSpace=wrap;html=1;" vertex="1" parent="1">
          <mxGeometry x="-124.99" y="930" width="160" height="40" as="geometry" />
        </mxCell>
        <mxCell id="yStfvqolcRnyzEvL0hIq-35" style="edgeStyle=orthogonalEdgeStyle;rounded=0;orthogonalLoop=1;jettySize=auto;html=1;exitX=0.5;exitY=1;exitDx=0;exitDy=0;entryX=0.5;entryY=0;entryDx=0;entryDy=0;" edge="1" parent="1" source="yStfvqolcRnyzEvL0hIq-30" target="yStfvqolcRnyzEvL0hIq-29">
          <mxGeometry relative="1" as="geometry" />
        </mxCell>
        <mxCell id="yStfvqolcRnyzEvL0hIq-30" value="Bunch.bReliable(1bit)" style="rounded=1;whiteSpace=wrap;html=1;" vertex="1" parent="1">
          <mxGeometry x="-120" y="860" width="150" height="40" as="geometry" />
        </mxCell>
        <mxCell id="yStfvqolcRnyzEvL0hIq-52" style="edgeStyle=orthogonalEdgeStyle;rounded=0;orthogonalLoop=1;jettySize=auto;html=1;exitX=0.5;exitY=1;exitDx=0;exitDy=0;entryX=0.5;entryY=0;entryDx=0;entryDy=0;" edge="1" parent="1" source="yStfvqolcRnyzEvL0hIq-34" target="yStfvqolcRnyzEvL0hIq-28">
          <mxGeometry relative="1" as="geometry" />
        </mxCell>
        <mxCell id="yStfvqolcRnyzEvL0hIq-34" value="Bunch.bHasPackageMapExports(1bit)" style="rounded=1;whiteSpace=wrap;html=1;" vertex="1" parent="1">
          <mxGeometry x="-150" y="1000" width="210" height="40" as="geometry" />
        </mxCell>
        <mxCell id="yStfvqolcRnyzEvL0hIq-60" style="edgeStyle=orthogonalEdgeStyle;rounded=0;orthogonalLoop=1;jettySize=auto;html=1;exitX=0;exitY=0.5;exitDx=0;exitDy=0;entryX=0.5;entryY=0;entryDx=0;entryDy=0;" edge="1" parent="1" source="yStfvqolcRnyzEvL0hIq-39" target="yStfvqolcRnyzEvL0hIq-51">
          <mxGeometry relative="1" as="geometry">
            <Array as="points">
              <mxPoint x="120" y="1560" />
              <mxPoint x="-45" y="1560" />
            </Array>
          </mxGeometry>
        </mxCell>
        <mxCell id="yStfvqolcRnyzEvL0hIq-39" value="Bunch.bPartialFinal(1bit)" style="rounded=1;whiteSpace=wrap;html=1;" vertex="1" parent="1">
          <mxGeometry x="112.75" y="1540" width="210" height="40" as="geometry" />
        </mxCell>
        <mxCell id="yStfvqolcRnyzEvL0hIq-58" style="edgeStyle=orthogonalEdgeStyle;rounded=0;orthogonalLoop=1;jettySize=auto;html=1;exitX=0.5;exitY=1;exitDx=0;exitDy=0;entryX=0.5;entryY=0;entryDx=0;entryDy=0;" edge="1" parent="1" source="yStfvqolcRnyzEvL0hIq-40" target="yStfvqolcRnyzEvL0hIq-47">
          <mxGeometry relative="1" as="geometry">
            <Array as="points">
              <mxPoint x="230" y="1370" />
              <mxPoint x="-45" y="1370" />
            </Array>
          </mxGeometry>
        </mxCell>
        <mxCell id="yStfvqolcRnyzEvL0hIq-40" value="Bunch.ChSequence(5bit)" style="rounded=1;whiteSpace=wrap;html=1;" vertex="1" parent="1">
          <mxGeometry x="110" y="1265" width="240" height="40" as="geometry" />
        </mxCell>
        <mxCell id="yStfvqolcRnyzEvL0hIq-42" style="edgeStyle=orthogonalEdgeStyle;rounded=0;orthogonalLoop=1;jettySize=auto;html=1;exitX=1;exitY=0.5;exitDx=0;exitDy=0;entryX=0;entryY=0.5;entryDx=0;entryDy=0;" edge="1" parent="1" source="yStfvqolcRnyzEvL0hIq-41" target="yStfvqolcRnyzEvL0hIq-40">
          <mxGeometry relative="1" as="geometry" />
        </mxCell>
        <mxCell id="yStfvqolcRnyzEvL0hIq-43" value="true" style="edgeLabel;html=1;align=center;verticalAlign=middle;resizable=0;points=[];" vertex="1" connectable="0" parent="yStfvqolcRnyzEvL0hIq-42">
          <mxGeometry x="-0.2398" relative="1" as="geometry">
            <mxPoint as="offset" />
          </mxGeometry>
        </mxCell>
        <mxCell id="yStfvqolcRnyzEvL0hIq-55" value="false" style="edgeStyle=orthogonalEdgeStyle;rounded=0;orthogonalLoop=1;jettySize=auto;html=1;exitX=0.5;exitY=1;exitDx=0;exitDy=0;entryX=0.5;entryY=0;entryDx=0;entryDy=0;verticalAlign=bottom;" edge="1" parent="1" source="yStfvqolcRnyzEvL0hIq-41" target="yStfvqolcRnyzEvL0hIq-47">
          <mxGeometry x="-0.2" relative="1" as="geometry">
            <mxPoint x="-45" y="1345" as="sourcePoint" />
            <mxPoint x="-45" y="1395" as="targetPoint" />
            <Array as="points" />
            <mxPoint as="offset" />
          </mxGeometry>
        </mxCell>
        <mxCell id="yStfvqolcRnyzEvL0hIq-41" value="Bunch.bReliable &amp;amp;&amp;amp; !IsInternalAck()" style="rhombus;whiteSpace=wrap;html=1;" vertex="1" parent="1">
          <mxGeometry x="-112.5" y="1230" width="135" height="110" as="geometry" />
        </mxCell>
        <mxCell id="yStfvqolcRnyzEvL0hIq-59" style="edgeStyle=orthogonalEdgeStyle;rounded=0;orthogonalLoop=1;jettySize=auto;html=1;exitX=0.5;exitY=1;exitDx=0;exitDy=0;entryX=0.5;entryY=0;entryDx=0;entryDy=0;" edge="1" parent="1" source="yStfvqolcRnyzEvL0hIq-44" target="yStfvqolcRnyzEvL0hIq-39">
          <mxGeometry relative="1" as="geometry" />
        </mxCell>
        <mxCell id="yStfvqolcRnyzEvL0hIq-44" value="Bunch.bPartialInitial(1bit)" style="rounded=1;whiteSpace=wrap;html=1;" vertex="1" parent="1">
          <mxGeometry x="110" y="1425" width="215.5" height="40" as="geometry" />
        </mxCell>
        <mxCell id="yStfvqolcRnyzEvL0hIq-45" style="edgeStyle=orthogonalEdgeStyle;rounded=0;orthogonalLoop=1;jettySize=auto;html=1;exitX=1;exitY=0.5;exitDx=0;exitDy=0;entryX=0;entryY=0.5;entryDx=0;entryDy=0;" edge="1" parent="1" source="yStfvqolcRnyzEvL0hIq-47" target="yStfvqolcRnyzEvL0hIq-44">
          <mxGeometry relative="1" as="geometry" />
        </mxCell>
        <mxCell id="yStfvqolcRnyzEvL0hIq-46" value="true" style="edgeLabel;html=1;align=center;verticalAlign=middle;resizable=0;points=[];" vertex="1" connectable="0" parent="yStfvqolcRnyzEvL0hIq-45">
          <mxGeometry x="-0.2398" relative="1" as="geometry">
            <mxPoint as="offset" />
          </mxGeometry>
        </mxCell>
        <mxCell id="yStfvqolcRnyzEvL0hIq-56" style="edgeStyle=orthogonalEdgeStyle;rounded=0;orthogonalLoop=1;jettySize=auto;html=1;exitX=0.5;exitY=1;exitDx=0;exitDy=0;entryX=0.5;entryY=0;entryDx=0;entryDy=0;" edge="1" parent="1" source="yStfvqolcRnyzEvL0hIq-47" target="yStfvqolcRnyzEvL0hIq-51">
          <mxGeometry relative="1" as="geometry" />
        </mxCell>
        <mxCell id="yStfvqolcRnyzEvL0hIq-61" value="false" style="edgeLabel;html=1;align=center;verticalAlign=middle;resizable=0;points=[];" vertex="1" connectable="0" parent="yStfvqolcRnyzEvL0hIq-56">
          <mxGeometry x="-0.3371" relative="1" as="geometry">
            <mxPoint y="-6" as="offset" />
          </mxGeometry>
        </mxCell>
        <mxCell id="yStfvqolcRnyzEvL0hIq-47" value="Bunch.bPartial" style="rhombus;whiteSpace=wrap;html=1;" vertex="1" parent="1">
          <mxGeometry x="-106.25" y="1400" width="122.5" height="90" as="geometry" />
        </mxCell>
        <mxCell id="yStfvqolcRnyzEvL0hIq-91" style="edgeStyle=orthogonalEdgeStyle;rounded=0;orthogonalLoop=1;jettySize=auto;html=1;exitX=0.5;exitY=1;exitDx=0;exitDy=0;entryX=0.5;entryY=0;entryDx=0;entryDy=0;" edge="1" parent="1" source="yStfvqolcRnyzEvL0hIq-48">
          <mxGeometry relative="1" as="geometry">
            <mxPoint x="-44.98500000000013" y="1790" as="targetPoint" />
            <Array as="points">
              <mxPoint x="225" y="1760" />
              <mxPoint x="-45" y="1760" />
            </Array>
          </mxGeometry>
        </mxCell>
        <mxCell id="yStfvqolcRnyzEvL0hIq-48" value="Bunch.ChName(动态)" style="rounded=1;whiteSpace=wrap;html=1;" vertex="1" parent="1">
          <mxGeometry x="117.25" y="1635" width="215.5" height="40" as="geometry" />
        </mxCell>
        <mxCell id="yStfvqolcRnyzEvL0hIq-49" style="edgeStyle=orthogonalEdgeStyle;rounded=0;orthogonalLoop=1;jettySize=auto;html=1;exitX=1;exitY=0.5;exitDx=0;exitDy=0;entryX=0;entryY=0.5;entryDx=0;entryDy=0;" edge="1" parent="1" source="yStfvqolcRnyzEvL0hIq-51" target="yStfvqolcRnyzEvL0hIq-48">
          <mxGeometry relative="1" as="geometry" />
        </mxCell>
        <mxCell id="yStfvqolcRnyzEvL0hIq-50" value="true" style="edgeLabel;html=1;align=center;verticalAlign=middle;resizable=0;points=[];" vertex="1" connectable="0" parent="yStfvqolcRnyzEvL0hIq-49">
          <mxGeometry x="-0.2398" relative="1" as="geometry">
            <mxPoint as="offset" />
          </mxGeometry>
        </mxCell>
        <mxCell id="yStfvqolcRnyzEvL0hIq-71" style="edgeStyle=orthogonalEdgeStyle;rounded=0;orthogonalLoop=1;jettySize=auto;html=1;exitX=0.5;exitY=1;exitDx=0;exitDy=0;entryX=0.5;entryY=0;entryDx=0;entryDy=0;" edge="1" parent="1" source="yStfvqolcRnyzEvL0hIq-51">
          <mxGeometry relative="1" as="geometry">
            <mxPoint x="-44.98500000000013" y="1790" as="targetPoint" />
          </mxGeometry>
        </mxCell>
        <mxCell id="yStfvqolcRnyzEvL0hIq-72" value="false" style="edgeLabel;html=1;align=center;verticalAlign=middle;resizable=0;points=[];" vertex="1" connectable="0" parent="yStfvqolcRnyzEvL0hIq-71">
          <mxGeometry x="-0.2125" y="-1" relative="1" as="geometry">
            <mxPoint x="1" y="-12" as="offset" />
          </mxGeometry>
        </mxCell>
        <mxCell id="yStfvqolcRnyzEvL0hIq-51" value="bIsOpenOrReliable" style="rhombus;whiteSpace=wrap;html=1;" vertex="1" parent="1">
          <mxGeometry x="-110.62" y="1615" width="131.25" height="80" as="geometry" />
        </mxCell>
        <mxCell id="yStfvqolcRnyzEvL0hIq-63" value="Bunch.GetNumBits()(动态)" style="rounded=1;whiteSpace=wrap;html=1;" vertex="1" parent="1">
          <mxGeometry x="-125" y="1790" width="160" height="40" as="geometry" />
        </mxCell>
      </root>
    </mxGraphModel>
  </diagram>
  <diagram id="ETzVbf_2OA2hhdTdk1EG" name="消息包结构">
    <mxGraphModel dx="2012" dy="642" grid="1" gridSize="10" guides="1" tooltips="1" connect="1" arrows="1" fold="1" page="1" pageScale="1" pageWidth="827" pageHeight="1169" math="0" shadow="0">
      <root>
        <mxCell id="0" />
        <mxCell id="1" parent="0" />
        <mxCell id="kO2xZxpVC5zxpoWmqamz-1" value="PacketHeader" style="rounded=1;whiteSpace=wrap;html=1;" vertex="1" parent="1">
          <mxGeometry x="50" y="500" width="120" height="60" as="geometry" />
        </mxCell>
        <mxCell id="kO2xZxpVC5zxpoWmqamz-9" style="edgeStyle=orthogonalEdgeStyle;rounded=0;orthogonalLoop=1;jettySize=auto;html=1;exitX=0.5;exitY=0;exitDx=0;exitDy=0;entryX=0.5;entryY=1;entryDx=0;entryDy=0;" edge="1" parent="1" source="kO2xZxpVC5zxpoWmqamz-2">
          <mxGeometry relative="1" as="geometry">
            <mxPoint x="230" y="585" as="targetPoint" />
          </mxGeometry>
        </mxCell>
        <mxCell id="kO2xZxpVC5zxpoWmqamz-2" value="Packet(SendBuffer)" style="rounded=1;whiteSpace=wrap;html=1;" vertex="1" parent="1">
          <mxGeometry x="-10" y="655" width="480" height="60" as="geometry" />
        </mxCell>
        <mxCell id="kO2xZxpVC5zxpoWmqamz-5" style="edgeStyle=orthogonalEdgeStyle;rounded=0;orthogonalLoop=1;jettySize=auto;html=1;exitX=0.5;exitY=0;exitDx=0;exitDy=0;" edge="1" parent="1" source="kO2xZxpVC5zxpoWmqamz-3">
          <mxGeometry relative="1" as="geometry">
            <mxPoint x="230" y="420" as="targetPoint" />
          </mxGeometry>
        </mxCell>
        <mxCell id="kO2xZxpVC5zxpoWmqamz-3" value="BunchList" style="rounded=1;whiteSpace=wrap;html=1;" vertex="1" parent="1">
          <mxGeometry x="170" y="500" width="120" height="60" as="geometry" />
        </mxCell>
        <mxCell id="kO2xZxpVC5zxpoWmqamz-4" value="PacketTail" style="rounded=1;whiteSpace=wrap;html=1;" vertex="1" parent="1">
          <mxGeometry x="290" y="500" width="120" height="60" as="geometry" />
        </mxCell>
        <mxCell id="kO2xZxpVC5zxpoWmqamz-6" value="BunchHeader" style="rounded=1;whiteSpace=wrap;html=1;" vertex="1" parent="1">
          <mxGeometry x="-140" y="350" width="90" height="60" as="geometry" />
        </mxCell>
        <mxCell id="kO2xZxpVC5zxpoWmqamz-7" value="BunchBody" style="rounded=1;whiteSpace=wrap;html=1;" vertex="1" parent="1">
          <mxGeometry x="-50" y="350" width="120" height="60" as="geometry" />
        </mxCell>
        <mxCell id="kO2xZxpVC5zxpoWmqamz-8" value="......" style="rounded=1;whiteSpace=wrap;html=1;" vertex="1" parent="1">
          <mxGeometry x="550" y="350" width="60" height="60" as="geometry" />
        </mxCell>
        <mxCell id="kO2xZxpVC5zxpoWmqamz-10" value="BunchHeader" style="rounded=1;whiteSpace=wrap;html=1;" vertex="1" parent="1">
          <mxGeometry x="90" y="350" width="90" height="60" as="geometry" />
        </mxCell>
        <mxCell id="kO2xZxpVC5zxpoWmqamz-11" value="BunchBody" style="rounded=1;whiteSpace=wrap;html=1;" vertex="1" parent="1">
          <mxGeometry x="180" y="350" width="120" height="60" as="geometry" />
        </mxCell>
        <mxCell id="kO2xZxpVC5zxpoWmqamz-12" value="BunchHeader" style="rounded=1;whiteSpace=wrap;html=1;" vertex="1" parent="1">
          <mxGeometry x="320" y="350" width="90" height="60" as="geometry" />
        </mxCell>
        <mxCell id="kO2xZxpVC5zxpoWmqamz-13" value="BunchBody" style="rounded=1;whiteSpace=wrap;html=1;" vertex="1" parent="1">
          <mxGeometry x="410" y="350" width="120" height="60" as="geometry" />
        </mxCell>
      </root>
    </mxGraphModel>
  </diagram>
  <diagram id="KsUXg0Us8ZB8M_rf8rms" name="PacketHeader+WriteDummyPacketInfo">
    <mxGraphModel dx="2257" dy="775" grid="1" gridSize="10" guides="1" tooltips="1" connect="1" arrows="1" fold="1" page="1" pageScale="1" pageWidth="827" pageHeight="1169" math="0" shadow="0">
      <root>
        <mxCell id="0" />
        <mxCell id="1" parent="0" />
        <mxCell id="maYHBehSJ52xejAcuCgV-10" style="edgeStyle=orthogonalEdgeStyle;rounded=0;orthogonalLoop=1;jettySize=auto;html=1;exitX=0.5;exitY=1;exitDx=0;exitDy=0;entryX=0.5;entryY=0;entryDx=0;entryDy=0;" edge="1" parent="1" source="MSjd0Ju7oUgdAUojKG33-1" target="rPZ9H7b6IR3LQTXmAkFb-1">
          <mxGeometry relative="1" as="geometry" />
        </mxCell>
        <mxCell id="MSjd0Ju7oUgdAUojKG33-1" value="FPackedHeader::Pack()(32bit)" style="rounded=1;whiteSpace=wrap;html=1;" vertex="1" parent="1">
          <mxGeometry x="70" y="320" width="250" height="60" as="geometry" />
        </mxCell>
        <mxCell id="maYHBehSJ52xejAcuCgV-11" style="edgeStyle=orthogonalEdgeStyle;rounded=0;orthogonalLoop=1;jettySize=auto;html=1;" edge="1" parent="1" source="rPZ9H7b6IR3LQTXmAkFb-1" target="rPZ9H7b6IR3LQTXmAkFb-4">
          <mxGeometry relative="1" as="geometry" />
        </mxCell>
        <mxCell id="rPZ9H7b6IR3LQTXmAkFb-1" value="TSequenceHistory&amp;lt;HistorySize&amp;gt;.Storage(32bit)" style="rounded=1;whiteSpace=wrap;html=1;" vertex="1" parent="1">
          <mxGeometry x="30" y="420" width="330" height="60" as="geometry" />
        </mxCell>
        <mxCell id="rPZ9H7b6IR3LQTXmAkFb-2" value="" style="shape=curlyBracket;whiteSpace=wrap;html=1;rounded=1;labelPosition=left;verticalLabelPosition=middle;align=right;verticalAlign=middle;" vertex="1" parent="1">
          <mxGeometry y="320" width="20" height="160" as="geometry" />
        </mxCell>
        <mxCell id="rPZ9H7b6IR3LQTXmAkFb-3" value="WritePacketHeader(64bit)" style="rounded=1;whiteSpace=wrap;html=1;" vertex="1" parent="1">
          <mxGeometry x="-240" y="370" width="170" height="60" as="geometry" />
        </mxCell>
        <mxCell id="rPZ9H7b6IR3LQTXmAkFb-9" style="edgeStyle=orthogonalEdgeStyle;rounded=0;orthogonalLoop=1;jettySize=auto;html=1;exitX=0.5;exitY=1;exitDx=0;exitDy=0;" edge="1" parent="1" source="rPZ9H7b6IR3LQTXmAkFb-4" target="rPZ9H7b6IR3LQTXmAkFb-8">
          <mxGeometry relative="1" as="geometry" />
        </mxCell>
        <mxCell id="rPZ9H7b6IR3LQTXmAkFb-4" value="bHasPacketInfoPayload(1bit)" style="rounded=1;whiteSpace=wrap;html=1;" vertex="1" parent="1">
          <mxGeometry x="70" y="550" width="250" height="60" as="geometry" />
        </mxCell>
        <mxCell id="rPZ9H7b6IR3LQTXmAkFb-6" value="" style="shape=curlyBracket;whiteSpace=wrap;html=1;rounded=1;labelPosition=left;verticalLabelPosition=middle;align=right;verticalAlign=middle;" vertex="1" parent="1">
          <mxGeometry y="550" width="20" height="490" as="geometry" />
        </mxCell>
        <mxCell id="rPZ9H7b6IR3LQTXmAkFb-7" value="WriteDummyPacketInfo" style="rounded=1;whiteSpace=wrap;html=1;" vertex="1" parent="1">
          <mxGeometry x="-250" y="765" width="190" height="60" as="geometry" />
        </mxCell>
        <mxCell id="rPZ9H7b6IR3LQTXmAkFb-11" style="edgeStyle=orthogonalEdgeStyle;rounded=0;orthogonalLoop=1;jettySize=auto;html=1;exitX=1;exitY=0.5;exitDx=0;exitDy=0;entryX=0;entryY=0.5;entryDx=0;entryDy=0;" edge="1" parent="1" source="rPZ9H7b6IR3LQTXmAkFb-8" target="rPZ9H7b6IR3LQTXmAkFb-10">
          <mxGeometry relative="1" as="geometry" />
        </mxCell>
        <mxCell id="rPZ9H7b6IR3LQTXmAkFb-12" value="true" style="edgeLabel;html=1;align=center;verticalAlign=middle;resizable=0;points=[];" vertex="1" connectable="0" parent="rPZ9H7b6IR3LQTXmAkFb-11">
          <mxGeometry x="-0.2" relative="1" as="geometry">
            <mxPoint as="offset" />
          </mxGeometry>
        </mxCell>
        <mxCell id="maYHBehSJ52xejAcuCgV-6" style="edgeStyle=orthogonalEdgeStyle;rounded=0;orthogonalLoop=1;jettySize=auto;html=1;exitX=0.5;exitY=1;exitDx=0;exitDy=0;entryX=0.5;entryY=0;entryDx=0;entryDy=0;" edge="1" parent="1" source="rPZ9H7b6IR3LQTXmAkFb-8" target="maYHBehSJ52xejAcuCgV-5">
          <mxGeometry relative="1" as="geometry" />
        </mxCell>
        <mxCell id="maYHBehSJ52xejAcuCgV-7" value="false" style="edgeLabel;html=1;align=center;verticalAlign=middle;resizable=0;points=[];" vertex="1" connectable="0" parent="maYHBehSJ52xejAcuCgV-6">
          <mxGeometry x="-0.2276" relative="1" as="geometry">
            <mxPoint as="offset" />
          </mxGeometry>
        </mxCell>
        <mxCell id="rPZ9H7b6IR3LQTXmAkFb-8" value="bHasPacketInfoPayload" style="rhombus;whiteSpace=wrap;html=1;" vertex="1" parent="1">
          <mxGeometry x="110" y="670" width="170" height="90" as="geometry" />
        </mxCell>
        <mxCell id="maYHBehSJ52xejAcuCgV-3" style="edgeStyle=orthogonalEdgeStyle;rounded=0;orthogonalLoop=1;jettySize=auto;html=1;exitX=0.5;exitY=1;exitDx=0;exitDy=0;" edge="1" parent="1" source="rPZ9H7b6IR3LQTXmAkFb-10" target="rPZ9H7b6IR3LQTXmAkFb-13">
          <mxGeometry relative="1" as="geometry" />
        </mxCell>
        <mxCell id="rPZ9H7b6IR3LQTXmAkFb-10" value="DummyJitterClockTime(10bit)" style="rounded=1;whiteSpace=wrap;html=1;" vertex="1" parent="1">
          <mxGeometry x="360" y="685" width="250" height="60" as="geometry" />
        </mxCell>
        <mxCell id="maYHBehSJ52xejAcuCgV-4" style="edgeStyle=orthogonalEdgeStyle;rounded=0;orthogonalLoop=1;jettySize=auto;html=1;exitX=0.5;exitY=1;exitDx=0;exitDy=0;entryX=0.5;entryY=0;entryDx=0;entryDy=0;" edge="1" parent="1" source="rPZ9H7b6IR3LQTXmAkFb-13" target="rPZ9H7b6IR3LQTXmAkFb-14">
          <mxGeometry relative="1" as="geometry" />
        </mxCell>
        <mxCell id="rPZ9H7b6IR3LQTXmAkFb-13" value="bHasServerFrameTime(1bit)" style="rounded=1;whiteSpace=wrap;html=1;" vertex="1" parent="1">
          <mxGeometry x="360" y="810" width="250" height="60" as="geometry" />
        </mxCell>
        <mxCell id="maYHBehSJ52xejAcuCgV-1" style="edgeStyle=orthogonalEdgeStyle;rounded=0;orthogonalLoop=1;jettySize=auto;html=1;exitX=1;exitY=0.5;exitDx=0;exitDy=0;entryX=0;entryY=0.5;entryDx=0;entryDy=0;" edge="1" parent="1" source="rPZ9H7b6IR3LQTXmAkFb-14" target="rPZ9H7b6IR3LQTXmAkFb-15">
          <mxGeometry relative="1" as="geometry">
            <Array as="points">
              <mxPoint x="600" y="950" />
              <mxPoint x="600" y="950" />
            </Array>
          </mxGeometry>
        </mxCell>
        <mxCell id="maYHBehSJ52xejAcuCgV-2" value="true" style="edgeLabel;html=1;align=center;verticalAlign=middle;resizable=0;points=[];" vertex="1" connectable="0" parent="maYHBehSJ52xejAcuCgV-1">
          <mxGeometry x="0.2286" y="1" relative="1" as="geometry">
            <mxPoint x="-7" y="1" as="offset" />
          </mxGeometry>
        </mxCell>
        <mxCell id="maYHBehSJ52xejAcuCgV-8" style="edgeStyle=orthogonalEdgeStyle;rounded=0;orthogonalLoop=1;jettySize=auto;html=1;exitX=0.5;exitY=1;exitDx=0;exitDy=0;entryX=0.5;entryY=0;entryDx=0;entryDy=0;" edge="1" parent="1" source="rPZ9H7b6IR3LQTXmAkFb-14" target="maYHBehSJ52xejAcuCgV-5">
          <mxGeometry relative="1" as="geometry">
            <Array as="points">
              <mxPoint x="485" y="1040" />
              <mxPoint x="195" y="1040" />
            </Array>
          </mxGeometry>
        </mxCell>
        <mxCell id="rPZ9H7b6IR3LQTXmAkFb-14" value="bHasServerFrameTime &lt;br&gt;&amp;amp;&amp;amp; Driver-&amp;gt;IsServer()" style="rhombus;whiteSpace=wrap;html=1;" vertex="1" parent="1">
          <mxGeometry x="400" y="900" width="170" height="100" as="geometry" />
        </mxCell>
        <mxCell id="maYHBehSJ52xejAcuCgV-9" style="edgeStyle=orthogonalEdgeStyle;rounded=0;orthogonalLoop=1;jettySize=auto;html=1;exitX=0.5;exitY=1;exitDx=0;exitDy=0;entryX=0.5;entryY=0;entryDx=0;entryDy=0;" edge="1" parent="1" source="rPZ9H7b6IR3LQTXmAkFb-15" target="maYHBehSJ52xejAcuCgV-5">
          <mxGeometry relative="1" as="geometry">
            <Array as="points">
              <mxPoint x="725" y="1040" />
              <mxPoint x="195" y="1040" />
            </Array>
          </mxGeometry>
        </mxCell>
        <mxCell id="rPZ9H7b6IR3LQTXmAkFb-15" value="DummyFrameTimeByte(8bit)" style="rounded=1;whiteSpace=wrap;html=1;" vertex="1" parent="1">
          <mxGeometry x="630" y="920" width="190" height="60" as="geometry" />
        </mxCell>
        <mxCell id="maYHBehSJ52xejAcuCgV-5" value="PacketHeader填充结束" style="rounded=1;whiteSpace=wrap;html=1;" vertex="1" parent="1">
          <mxGeometry x="70" y="1070" width="250" height="60" as="geometry" />
        </mxCell>
      </root>
    </mxGraphModel>
  </diagram>
</mxfile>
